# xmcd
#
# Track frame offsets:
#	150
#	16050
#	34233
#	54006
#	75028
#	85759
#	104233
#	123780
#	142848
#	158940
#	179398
#	195253
#	213389
#
# Disc length: 3121 seconds
#
# Revision: 0
# Processed by: cddbd v1.5.2PL0 Copyright (c) Steve Scherf et al.
# Submitted via: FairStars CD Ripper 1.70
#
DISCID=940c2f0d
DTITLE=Scott Silipigni - Simple view
DYEAR=2006
DGENRE=Pop
TTITLE0=For All the Souls
TTITLE1=Simple View
TTITLE2=Good Thing
TTITLE3=Love Like
TTITLE4=Living On a Daydream
TTITLE5=Somewhere On the Outside
TTITLE6=Think of You
TTITLE7=Wheather
TTITLE8=Over It	
TTITLE9=Heartbreaker
TTITLE10=Honey
TTITLE11=Stars in the Sky
TTITLE12=How Could I
EXTD=
EXTT0=
EXTT1=
EXTT2=
EXTT3=
EXTT4=
EXTT5=
EXTT6=
EXTT7=
EXTT8=
EXTT9=
EXTT10=
EXTT11=
EXTT12=
PLAYORDER=
